<svg xmlns="http://www.w3.org/2000/svg" viewBox="0 0 43.84 31.99"><defs><style>.a{fill:#4d4d4d;}</style></defs><title>Asset 1</title><path class="a" d="M7.35,6.34a12.09,12.09,0,0,0-3,5.84,15.6,15.6,0,0,0-.28,2.69A6.82,6.82,0,0,0,4.38,17a8.86,8.86,0,0,1,6.68-2.75,9.24,9.24,0,0,1,6.57,2.36,8.47,8.47,0,0,1,2.53,6.51,8.33,8.33,0,0,1-2.67,6.4A9.56,9.56,0,0,1,10.72,32q-5.61,0-8.2-4A13.94,13.94,0,0,1,.67,23.66,20.49,20.49,0,0,1,0,18.41,20,20,0,0,1,3,7.63a20.13,20.13,0,0,1,9-7.63l1.07,2.08A15.62,15.62,0,0,0,7.35,6.34ZM31,6.34a12.09,12.09,0,0,0-3,5.84,15.6,15.6,0,0,0-.28,2.69A6.82,6.82,0,0,0,28.07,17a8.86,8.86,0,0,1,6.68-2.75,9.24,9.24,0,0,1,6.57,2.36,8.47,8.47,0,0,1,2.53,6.51,8.33,8.33,0,0,1-2.67,6.4A9.56,9.56,0,0,1,34.41,32q-5.61,0-8.2-4a13.94,13.94,0,0,1-1.85-4.29,20.49,20.49,0,0,1-.67-5.25,20,20,0,0,1,3-10.78,20.13,20.13,0,0,1,9-7.63l1.07,2.08A15.62,15.62,0,0,0,31,6.34Z"/></svg>